<svg width="31" height="25" viewBox="0 0 31 25" fill="none" xmlns="http://www.w3.org/2000/svg">
<path d="M25.8666 2.46021C23.9191 1.55834 21.8307 0.893878 19.6471 0.513315C19.6073 0.50597 19.5676 0.524325 19.5471 0.561036C19.2785 1.04316 18.981 1.67213 18.7727 2.1665C16.4241 1.81165 14.0876 1.81165 11.7872 2.1665C11.5788 1.66115 11.2705 1.04316 11.0007 0.561036C10.9802 0.52555 10.9405 0.507195 10.9008 0.513315C8.7184 0.892662 6.63 1.55712 4.68128 2.46021C4.66441 2.46755 4.64995 2.4798 4.64036 2.49569C0.679087 8.46852 -0.406071 14.2945 0.126271 20.0483C0.12868 20.0765 0.144337 20.1034 0.166016 20.1205C2.77955 22.0576 5.3112 23.2336 7.79584 24.0131C7.83561 24.0253 7.87774 24.0106 7.90304 23.9776C8.49079 23.1675 9.01471 22.3134 9.46392 21.4152C9.49043 21.3626 9.46512 21.3002 9.41094 21.2794C8.57991 20.9612 7.78861 20.5733 7.02743 20.1328C6.96723 20.0973 6.96241 20.0104 7.01779 19.9688C7.17797 19.8476 7.3382 19.7216 7.49115 19.5943C7.51882 19.5711 7.55738 19.5662 7.58991 19.5809C12.5905 21.8851 18.0043 21.8851 22.9459 19.5809C22.9784 19.565 23.017 19.5699 23.0459 19.5931C23.1989 19.7204 23.359 19.8476 23.5204 19.9688C23.5758 20.0104 23.5722 20.0973 23.512 20.1328C22.7508 20.5818 21.9595 20.9612 21.1273 21.2781C21.0731 21.2989 21.049 21.3626 21.0755 21.4152C21.5344 22.3121 22.0583 23.1663 22.6352 23.9764C22.6593 24.0106 22.7026 24.0253 22.7424 24.0131C25.2391 23.2336 27.7707 22.0576 30.3842 20.1205C30.4071 20.1034 30.4216 20.0777 30.424 20.0496C31.0611 13.3975 29.3569 7.6193 25.9063 2.49691C25.8979 2.4798 25.8834 2.46755 25.8666 2.46021ZM10.2107 16.5449C8.70515 16.5449 7.46464 15.1499 7.46464 13.4367C7.46464 11.7235 8.68109 10.3286 10.2107 10.3286C11.7523 10.3286 12.9808 11.7358 12.9567 13.4367C12.9567 15.1499 11.7402 16.5449 10.2107 16.5449ZM20.3637 16.5449C18.8582 16.5449 17.6177 15.1499 17.6177 13.4367C17.6177 11.7235 18.8341 10.3286 20.3637 10.3286C21.9053 10.3286 23.1338 11.7358 23.1097 13.4367C23.1097 15.1499 21.9053 16.5449 20.3637 16.5449Z" fill="#93D3FF"/>
</svg>
