<svg width="64" height="64" viewBox="0 0 64 64" fill="none" xmlns="http://www.w3.org/2000/svg">
<path d="M32.0004 56C45.2552 56 56.0004 45.2548 56.0004 32C56.0004 18.7452 45.2552 8 32.0004 8C18.7455 8 8.00037 18.7452 8.00037 32C8.00037 45.2548 18.7455 56 32.0004 56Z" stroke="#FBEDD6" stroke-width="1.5" stroke-linecap="round" stroke-linejoin="round"/>
<path d="M32 46C33.1046 46 34 45.1046 34 44C34 42.8954 33.1046 42 32 42C30.8954 42 30 42.8954 30 44C30 45.1046 30.8954 46 32 46Z" fill="#FBEDD6"/>
<path d="M32.0002 34.0011C33.3847 34.0011 34.7381 33.5906 35.8892 32.8214C37.0404 32.0522 37.9376 30.959 38.4674 29.6799C38.9972 28.4008 39.1358 26.9934 38.8657 25.6355C38.5956 24.2776 37.929 23.0304 36.95 22.0514C35.971 21.0724 34.7237 20.4057 33.3659 20.1356C32.008 19.8655 30.6005 20.0042 29.3215 20.534C28.0424 21.0638 26.9491 21.961 26.18 23.1121C25.4108 24.2633 25.0002 25.6167 25.0002 27.0011" stroke="#FBEDD6" stroke-width="1.5" stroke-linecap="round" stroke-linejoin="round"/>
</svg>
