<svg width="32" height="28" viewBox="0 0 32 28" fill="none" xmlns="http://www.w3.org/2000/svg">
<path d="M31.3222 17.7305V19.3409C31.3222 19.4334 31.2657 19.5156 31.1836 19.5516C30.6801 19.7673 28.9566 20.5584 28.24 21.555C26.4112 24.1004 25.0139 27.74 21.8906 27.74H8.86056C4.24233 27.74 0.5 23.9848 0.5 19.3512V19.2022C0.5 19.0789 0.600167 18.9788 0.7235 18.9788H7.98722C8.13106 18.9788 8.23639 19.1123 8.22356 19.2536C8.17217 19.7262 8.2595 20.2091 8.48294 20.6483C8.9145 21.5242 9.80833 22.0713 10.7741 22.0713H14.37V19.2639H10.8152C10.6328 19.2639 10.5249 19.0533 10.6303 18.9043C10.6688 18.8452 10.7124 18.7836 10.7587 18.7142C11.0952 18.2365 11.5754 17.4942 12.0532 16.6491C12.3794 16.0789 12.6953 15.4702 12.9496 14.8589C13.001 14.7484 13.0421 14.6354 13.0832 14.5249C13.1526 14.3298 13.2244 14.1474 13.2758 13.9651C13.3272 13.8109 13.3683 13.6491 13.4094 13.4976C13.5301 12.9787 13.5815 12.4291 13.5815 11.8588C13.5815 11.6354 13.5712 11.4017 13.5507 11.1782C13.5404 10.9342 13.5096 10.6902 13.4787 10.4462C13.4582 10.2304 13.4197 10.0172 13.3786 9.79378C13.3272 9.46756 13.2553 9.14394 13.1731 8.81772L13.1448 8.69445C13.0832 8.471 13.0318 8.25778 12.9599 8.03433C12.757 7.33311 12.5232 6.64989 12.2767 6.01033C12.1868 5.75606 12.084 5.51206 11.9813 5.26806C11.8297 4.90072 11.6756 4.56683 11.5344 4.25089C11.4624 4.10706 11.4008 3.97606 11.3392 3.8425C11.2698 3.69094 11.1979 3.53944 11.126 3.39556C11.0746 3.28511 11.0155 3.18239 10.9744 3.07967L10.5352 2.268C10.4736 2.15756 10.5763 2.02656 10.697 2.05994L13.4453 2.80483H13.4531C13.4582 2.80483 13.4608 2.80739 13.4633 2.80739L13.8255 2.90756L14.2236 3.02056L14.37 3.06167V1.42811C14.37 0.639556 15.0019 0 15.7827 0C16.1731 0 16.5276 0.159222 16.7818 0.418666C17.0361 0.678111 17.1954 1.03256 17.1954 1.42811V3.85278L17.4882 3.93494C17.5113 3.94267 17.5344 3.95294 17.555 3.96833C17.6269 4.02228 17.7296 4.10194 17.8606 4.1995C17.9634 4.28172 18.0738 4.38189 18.2074 4.48461C18.4719 4.69783 18.7878 4.97267 19.1346 5.28856C19.2271 5.36822 19.317 5.45039 19.3992 5.53261C19.8461 5.94867 20.3469 6.43672 20.8247 6.97611C20.9583 7.12761 21.0893 7.28172 21.2228 7.44356C21.3564 7.60794 21.4977 7.76978 21.6209 7.93161C21.7828 8.14733 21.9574 8.37078 22.1089 8.60456C22.1809 8.715 22.2631 8.828 22.3324 8.93844C22.5276 9.23383 22.6997 9.5395 22.8641 9.84511C22.9334 9.98639 23.0054 10.1405 23.067 10.2921C23.2494 10.7004 23.3932 11.1166 23.4857 11.5327C23.5139 11.6226 23.5345 11.7202 23.5448 11.8075V11.828C23.5756 11.9513 23.5858 12.0823 23.5961 12.2159C23.6372 12.6422 23.6167 13.0686 23.5242 13.4976C23.4857 13.6799 23.4343 13.852 23.3727 14.0344C23.311 14.2091 23.2494 14.3914 23.1698 14.5635C23.0157 14.9205 22.8333 15.2776 22.6175 15.6114C22.5482 15.7347 22.466 15.8657 22.3838 15.989C22.2939 16.12 22.2014 16.2433 22.1192 16.3641C22.0062 16.5182 21.8855 16.6799 21.7622 16.8238C21.6518 16.9753 21.5387 17.1269 21.4154 17.2604C21.2434 17.4633 21.079 17.656 20.9069 17.8409C20.8042 17.9617 20.6937 18.0849 20.5807 18.1954C20.4702 18.3187 20.3572 18.4291 20.2545 18.5318C20.0824 18.7039 19.9386 18.8375 19.8178 18.9479L19.5353 19.2074C19.4942 19.2433 19.4403 19.2639 19.3838 19.2639H17.1954V22.0713H19.9488C20.5653 22.0713 21.1509 21.8529 21.6235 21.4523C21.7853 21.311 22.4917 20.6997 23.3264 19.7776C23.3547 19.7468 23.3907 19.7237 23.4317 19.7134L31.0371 17.5147C31.1784 17.4736 31.3222 17.5815 31.3222 17.7305Z" fill="#93D3FF"/>
</svg>
