<svg width="32" height="26" viewBox="0 0 32 26" fill="none" xmlns="http://www.w3.org/2000/svg">
<path d="M28.3704 6.58465C28.3894 6.86191 28.3894 7.13917 28.3894 7.41898C28.3894 15.9451 21.9687 25.7782 10.2283 25.7782V25.7731C6.76009 25.7782 3.36396 24.7739 0.444336 22.8804C0.948635 22.9417 1.45546 22.9724 1.96355 22.9737C4.83768 22.9762 7.62966 22.0013 9.89079 20.2062C7.15948 20.1538 4.76438 18.3535 3.92767 15.7253C4.88445 15.9118 5.8703 15.8735 6.80938 15.6141C3.83161 15.0059 1.68929 12.3611 1.68929 9.28953C1.68929 9.26142 1.68929 9.23459 1.68929 9.20776C2.57655 9.70734 3.56998 9.9846 4.58616 10.0153C1.78155 8.12044 0.917038 4.34868 2.61068 1.39975C5.85134 5.43088 10.6327 7.88151 15.7654 8.14088C15.251 5.8998 15.9538 3.55139 17.612 1.97599C20.1828 -0.466965 24.226 -0.341751 26.6426 2.25581C28.0721 1.97088 29.4422 1.44064 30.696 0.689351C30.2195 2.18298 29.2223 3.45173 27.8901 4.25796C29.1553 4.10719 30.3914 3.76477 31.5554 3.24219C30.6985 4.54033 29.6191 5.67109 28.3704 6.58465Z" fill="#93D3FF"/>
</svg>
